<svg xmlns="http://www.w3.org/2000/svg" viewBox="0 0 24 24" width="256" height="256">
  <defs>
    <linearGradient id="g" x1="0" y1="0" x2="24" y2="24" gradientUnits="userSpaceOnUse">
      <stop offset="0%" stop-color="#2563EB" />
      <stop offset="55%" stop-color="#7C3AED" />
      <stop offset="100%" stop-color="#06B6D4" />
    </linearGradient>
  </defs>
  <rect x="0" y="0" width="24" height="24" rx="6" fill="url(#g)" />
  <g fill="none" stroke="#ffffff" stroke-width="2.1" stroke-linecap="round" stroke-linejoin="round">
    <path d="m10 16 1.5 1.5" />
    <path d="m14 8-1.5-1.5" />
    <path d="M15 2c-1.798 1.998-2.518 3.995-2.807 5.993" />
    <path d="m16.5 10.5 1 1" />
    <path d="m17 6-2.891-2.891" />
    <path d="M2 15c6.667-6 13.333 0 20-6" />
    <path d="m20 9 .891.891" />
    <path d="M3.109 14.109 4 15" />
    <path d="m6.5 12.5 1 1" />
    <path d="m7 18 2.891 2.891" />
    <path d="M9 22c1.798-1.998 2.518-3.995 2.807-5.993" />
  </g>
</svg>
